P3
2 2
255
5 5 54	5 5 14	
5 5 54	5 5 14	
